<?xml version="1.0" encoding="UTF-8"?>
<svg width="26px" height="35px" viewBox="0 0 26 35" version="1.1" xmlns="http://www.w3.org/2000/svg" xmlns:xlink="http://www.w3.org/1999/xlink">
    <title>categories.selected</title>
    <g id="Page-1" stroke="none" stroke-width="1" fill="none" fill-rule="evenodd">
        <g id="Artboard" transform="translate(-57, -39)">
            <g id="categories.selected" transform="translate(57, 39)">
                <line x1="8.5" y1="31" x2="17.5" y2="31" id="Path" stroke="#000000" stroke-width="3" stroke-linecap="round"></line>
                <path d="M20,3 L6,3 C4.343,3 3,4.3431 3,6 L3,20 C3,21.6569 4.343,23 6,23 L20,23 C21.657,23 23,21.6569 23,20 L23,6 C23,4.3431 21.657,3 20,3 Z" id="Path" stroke="#000000" stroke-width="2"></path>
                <line x1="7.24" y1="13" x2="18.778" y2="13" id="Path" stroke="#000000" stroke-width="2" stroke-linecap="round" stroke-linejoin="round"></line>
                <line x1="7.24" y1="8.189" x2="14.891" y2="8.189" id="Path" stroke="#000000" stroke-width="2" stroke-linecap="round" stroke-linejoin="round"></line>
                <line x1="7.24" y1="17.8109" x2="14.891" y2="17.8109" id="Path" stroke="#000000" stroke-width="2" stroke-linecap="round" stroke-linejoin="round"></line>
                <rect id="Rectangle" opacity="0" fill-rule="nonzero" x="0" y="0" width="26" height="35"></rect>
            </g>
        </g>
    </g>
</svg>