<?xml version="1.0" encoding="UTF-8"?>
<svg width="26px" height="35px" viewBox="0 0 26 35" version="1.1" xmlns="http://www.w3.org/2000/svg" xmlns:xlink="http://www.w3.org/1999/xlink">
    <title>profile</title>
    <g id="Page-1" stroke="none" stroke-width="1" fill="none" fill-rule="evenodd">
        <g id="Artboard" transform="translate(-109, -4)">
            <g id="profile" transform="translate(109, 4)">
                <path d="M16.346,5.6729 C16.346,7.7013 14.701,9.3457 12.673,9.3457 C10.644,9.3457 9,7.7013 9,5.6729 C9,3.6444 10.644,2 12.673,2 C14.701,2 16.346,3.6444 16.346,5.6729 Z" id="Path" stroke="#004CFF" stroke-width="2"></path>
                <path d="M22.921,22.9999 L22.921,19.673 C22.879,18.3934 22.331,17.1827 21.397,16.3066 C20.464,15.4305 19.221,14.9606 17.941,15 L7.98,15 C6.7,14.9606 5.457,15.4305 4.524,16.3066 C3.59,17.1827 3.042,18.3934 3,19.673 L3,22.9999" id="Path" stroke="#004CFF" stroke-width="2" stroke-linecap="round" stroke-linejoin="round"></path>
                <line x1="8.5" y1="31" x2="17.5" y2="31" id="Path" stroke="#000000" stroke-width="3" opacity="0.01" stroke-linecap="round"></line>
                <rect id="Rectangle" opacity="0" fill-rule="nonzero" x="0" y="0" width="26" height="35"></rect>
            </g>
        </g>
    </g>
</svg>